<svg width="548" height="44" viewBox="0 0 548 44" version="1.1" xmlns="http://www.w3.org/2000/svg" xmlns:xlink="http://www.w3.org/1999/xlink">
<title>Group</title>
<desc>Created using Figma</desc>
<g id="Canvas" transform="translate(272 -493)">
<g id="Group">
<g id="Component">
<g id="Component">
<g id="Line 2">
<use xlink:href="#path0_stroke" transform="matrix(6.12323e-17 1 -1 6.12323e-17 -272 495)" fill="#333333"/>
</g>
<g id="Line 3">
<use xlink:href="#path1_stroke" transform="translate(-272 495)" fill="#333333"/>
</g>
</g>
<g id="Line 3">
<use xlink:href="#path1_stroke" transform="translate(-272 537)" fill="#333333"/>
</g>
</g>
<g id="Component">
</g>
<g id="Arrow 4">
<use xlink:href="#path2_stroke" transform="translate(-92 512)" fill="#333333"/>
</g>
<g id="Arrow 4">
<use xlink:href="#path2_stroke" transform="translate(69 512)" fill="#333333"/>
</g>
<g id="Component">
<g id="Line 2">
<use xlink:href="#path0_stroke" transform="matrix(-1.83697e-16 -1 1 -1.83697e-16 -97 535)" fill="#333333"/>
</g>
<g id="Line 3">
<use xlink:href="#path1_stroke" transform="matrix(-1 1.22465e-16 -1.22465e-16 -1 -97 535)" fill="#333333"/>
</g>
</g>
<g id="Line 3">
<use xlink:href="#path1_stroke" transform="matrix(-1 1.22465e-16 -1.22465e-16 -1 -97 493)" fill="#333333"/>
</g>
<g id="Component">
<g id="Line 2">
<use xlink:href="#path0_stroke" transform="matrix(6.12323e-17 1 -1 6.12323e-17 99 495)" fill="#333333"/>
</g>
<g id="Line 3">
<use xlink:href="#path1_stroke" transform="translate(99 495)" fill="#333333"/>
</g>
</g>
<g id="Component">
<g id="Line 2">
<use xlink:href="#path0_stroke" transform="matrix(-1.83697e-16 -1 1 -1.83697e-16 276 535)" fill="#333333"/>
</g>
<g id="Line 3">
<use xlink:href="#path1_stroke" transform="matrix(-1 1.22465e-16 -1.22465e-16 -1 276 535)" fill="#333333"/>
</g>
</g>
<g id="Line 3">
<use xlink:href="#path1_stroke" transform="matrix(-1 1.22465e-16 -1.22465e-16 -1 275 493)" fill="#333333"/>
</g>
<g id="Line">
<use xlink:href="#path3_stroke" transform="matrix(6.12323e-17 1 -1 6.12323e-17 189 494)" fill="#333333"/>
</g>
<g id="Line 3">
<use xlink:href="#path1_stroke" transform="translate(99 537)" fill="#333333"/>
</g>
<g id="R2 = R2 * (30/20)">
<use xlink:href="#path4_fill" transform="translate(-68 502)"/>
</g>
<g id="1 -1/30 -1000/30 0 20/30 47000/30">
<use xlink:href="#path5_fill" transform="translate(-263 496)" fill="#333333"/>
</g>
<g id="Line">
<use xlink:href="#path0_stroke" transform="matrix(6.12323e-17 1 -1 6.12323e-17 -182 493)" fill="#333333"/>
</g>
<g id="1 -1/30 -1000/30 0 1 2350">
<use xlink:href="#path6_fill" transform="translate(110 497)" fill="#333333"/>
</g>
</g>
</g>
<defs>
<path id="path0_stroke" d="M 0 0L 42 0L 42 -1L 0 -1L 0 0Z"/>
<path id="path1_stroke" d="M 0 0L 6 0L 6 -1L 0 -1L 0 0Z"/>
<path id="path2_stroke" d="M 17.3536 0.353553C 17.5488 0.158291 17.5488 -0.158291 17.3536 -0.353553L 14.1716 -3.53553C 13.9763 -3.7308 13.6597 -3.7308 13.4645 -3.53553C 13.2692 -3.34027 13.2692 -3.02369 13.4645 -2.82843L 16.2929 0L 13.4645 2.82843C 13.2692 3.02369 13.2692 3.34027 13.4645 3.53553C 13.6597 3.7308 13.9763 3.7308 14.1716 3.53553L 17.3536 0.353553ZM 0 0.5L 17 0.5L 17 -0.5L 0 -0.5L 0 0.5Z"/>
<path id="path3_stroke" d="M 0 0L 41 0L 41 -1L 0 -1L 0 0Z"/>
<path id="path4_fill" d="M 5.59375 10.3984L 2.92188 10.3984L 2.92188 15L 1.41406 15L 1.41406 3.625L 5.17969 3.625C 6.46094 3.625 7.44531 3.91667 8.13281 4.5C 8.82552 5.08333 9.17188 5.93229 9.17188 7.04688C 9.17188 7.75521 8.97917 8.3724 8.59375 8.89844C 8.21354 9.42448 7.68229 9.81771 7 10.0781L 9.67188 14.9062L 9.67188 15L 8.0625 15L 5.59375 10.3984ZM 2.92188 9.17188L 5.22656 9.17188C 5.97135 9.17188 6.5625 8.97917 7 8.59375C 7.44271 8.20833 7.66406 7.69271 7.66406 7.04688C 7.66406 6.34375 7.45312 5.80469 7.03125 5.42969C 6.61458 5.05469 6.01042 4.86458 5.21875 4.85938L 2.92188 4.85938L 2.92188 9.17188ZM 18.3594 15L 10.9062 15L 10.9062 13.9609L 14.8438 9.58594C 15.4271 8.92448 15.8281 8.38802 16.0469 7.97656C 16.2708 7.5599 16.3828 7.13021 16.3828 6.6875C 16.3828 6.09375 16.2031 5.60677 15.8438 5.22656C 15.4844 4.84635 15.0052 4.65625 14.4062 4.65625C 13.6875 4.65625 13.1276 4.86198 12.7266 5.27344C 12.3307 5.67969 12.1328 6.2474 12.1328 6.97656L 10.6875 6.97656C 10.6875 5.92969 11.0234 5.08333 11.6953 4.4375C 12.3724 3.79167 13.276 3.46875 14.4062 3.46875C 15.4635 3.46875 16.2995 3.7474 16.9141 4.30469C 17.5286 4.85677 17.8359 5.59375 17.8359 6.51562C 17.8359 7.63542 17.1224 8.96875 15.6953 10.5156L 12.6484 13.8203L 18.3594 13.8203L 18.3594 15ZM 30.6172 8.64062L 24.1016 8.64062L 24.1016 7.38281L 30.6172 7.38281L 30.6172 8.64062ZM 30.6172 11.8828L 24.1016 11.8828L 24.1016 10.6328L 30.6172 10.6328L 30.6172 11.8828ZM 41.1562 10.3984L 38.4844 10.3984L 38.4844 15L 36.9766 15L 36.9766 3.625L 40.7422 3.625C 42.0234 3.625 43.0078 3.91667 43.6953 4.5C 44.388 5.08333 44.7344 5.93229 44.7344 7.04688C 44.7344 7.75521 44.5417 8.3724 44.1562 8.89844C 43.776 9.42448 43.2448 9.81771 42.5625 10.0781L 45.2344 14.9062L 45.2344 15L 43.625 15L 41.1562 10.3984ZM 38.4844 9.17188L 40.7891 9.17188C 41.5339 9.17188 42.125 8.97917 42.5625 8.59375C 43.0052 8.20833 43.2266 7.69271 43.2266 7.04688C 43.2266 6.34375 43.0156 5.80469 42.5938 5.42969C 42.1771 5.05469 41.5729 4.86458 40.7812 4.85938L 38.4844 4.85938L 38.4844 9.17188ZM 53.9219 15L 46.4688 15L 46.4688 13.9609L 50.4062 9.58594C 50.9896 8.92448 51.3906 8.38802 51.6094 7.97656C 51.8333 7.5599 51.9453 7.13021 51.9453 6.6875C 51.9453 6.09375 51.7656 5.60677 51.4062 5.22656C 51.0469 4.84635 50.5677 4.65625 49.9688 4.65625C 49.25 4.65625 48.6901 4.86198 48.2891 5.27344C 47.8932 5.67969 47.6953 6.2474 47.6953 6.97656L 46.25 6.97656C 46.25 5.92969 46.5859 5.08333 47.2578 4.4375C 47.9349 3.79167 48.8385 3.46875 49.9688 3.46875C 51.026 3.46875 51.862 3.7474 52.4766 4.30469C 53.0911 4.85677 53.3984 5.59375 53.3984 6.51562C 53.3984 7.63542 52.6849 8.96875 51.2578 10.5156L 48.2109 13.8203L 53.9219 13.8203L 53.9219 15ZM 61.0547 7.32031L 58.6953 6.61719L 59.0547 5.4375L 61.4141 6.3125L 61.3438 3.625L 62.5391 3.625L 62.4609 6.35156L 64.7812 5.49219L 65.1406 6.67969L 62.7422 7.39062L 64.2891 9.50781L 63.3203 10.2422L 61.8672 7.99219L 60.4609 10.1875L 59.4844 9.47656L 61.0547 7.32031ZM 70.375 10.3828C 70.375 9.20573 70.5312 8.07552 70.8438 6.99219C 71.1615 5.90885 71.6328 4.92448 72.2578 4.03906C 72.8828 3.15365 73.5312 2.52865 74.2031 2.16406L 74.5 3.11719C 73.7396 3.70052 73.1146 4.59115 72.625 5.78906C 72.1406 6.98698 71.875 8.32812 71.8281 9.8125L 71.8203 10.4766C 71.8203 12.487 72.1875 14.2318 72.9219 15.7109C 73.3646 16.5964 73.8906 17.2891 74.5 17.7891L 74.2031 18.6719C 73.5104 18.2865 72.849 17.6406 72.2188 16.7344C 70.9896 14.9635 70.375 12.8464 70.375 10.3828ZM 77.8516 8.60938L 78.9375 8.60938C 79.6198 8.59896 80.1562 8.41927 80.5469 8.07031C 80.9375 7.72135 81.1328 7.25 81.1328 6.65625C 81.1328 5.32292 80.4688 4.65625 79.1406 4.65625C 78.5156 4.65625 78.0156 4.83594 77.6406 5.19531C 77.2708 5.54948 77.0859 6.02083 77.0859 6.60938L 75.6406 6.60938C 75.6406 5.70833 75.9688 4.96094 76.625 4.36719C 77.2865 3.76823 78.125 3.46875 79.1406 3.46875C 80.2135 3.46875 81.0547 3.7526 81.6641 4.32031C 82.2734 4.88802 82.5781 5.67708 82.5781 6.6875C 82.5781 7.18229 82.4167 7.66146 82.0938 8.125C 81.776 8.58854 81.3411 8.9349 80.7891 9.16406C 81.4141 9.36198 81.8958 9.6901 82.2344 10.1484C 82.5781 10.6068 82.75 11.1667 82.75 11.8281C 82.75 12.849 82.4167 13.6589 81.75 14.2578C 81.0833 14.8568 80.2161 15.1562 79.1484 15.1562C 78.0807 15.1562 77.2109 14.8672 76.5391 14.2891C 75.8724 13.7109 75.5391 12.9479 75.5391 12L 76.9922 12C 76.9922 12.599 77.1875 13.0781 77.5781 13.4375C 77.9688 13.7969 78.4922 13.9766 79.1484 13.9766C 79.8464 13.9766 80.3802 13.7943 80.75 13.4297C 81.1198 13.0651 81.3047 12.5417 81.3047 11.8594C 81.3047 11.1979 81.1016 10.6901 80.6953 10.3359C 80.2891 9.98177 79.7031 9.79948 78.9375 9.78906L 77.8516 9.78906L 77.8516 8.60938ZM 91.8672 10.1484C 91.8672 11.8411 91.5781 13.099 91 13.9219C 90.4219 14.7448 89.5182 15.1562 88.2891 15.1562C 87.0755 15.1562 86.1771 14.7552 85.5938 13.9531C 85.0104 13.1458 84.7083 11.9427 84.6875 10.3438L 84.6875 8.41406C 84.6875 6.74219 84.9766 5.5 85.5547 4.6875C 86.1328 3.875 87.0391 3.46875 88.2734 3.46875C 89.4974 3.46875 90.3984 3.86198 90.9766 4.64844C 91.5547 5.42969 91.8516 6.63802 91.8672 8.27344L 91.8672 10.1484ZM 90.4219 8.17188C 90.4219 6.94792 90.25 6.05729 89.9062 5.5C 89.5625 4.9375 89.0182 4.65625 88.2734 4.65625C 87.5339 4.65625 86.9948 4.9349 86.6562 5.49219C 86.3177 6.04948 86.1432 6.90625 86.1328 8.0625L 86.1328 10.375C 86.1328 11.6042 86.3099 12.513 86.6641 13.1016C 87.0234 13.6849 87.5651 13.9766 88.2891 13.9766C 89.0026 13.9766 89.5312 13.7005 89.875 13.1484C 90.224 12.5964 90.4062 11.7266 90.4219 10.5391L 90.4219 8.17188ZM 94.1562 15.9766L 92.9141 15.9766L 97.6641 3.625L 98.8984 3.625L 94.1562 15.9766ZM 107.766 15L 100.312 15L 100.312 13.9609L 104.25 9.58594C 104.833 8.92448 105.234 8.38802 105.453 7.97656C 105.677 7.5599 105.789 7.13021 105.789 6.6875C 105.789 6.09375 105.609 5.60677 105.25 5.22656C 104.891 4.84635 104.411 4.65625 103.812 4.65625C 103.094 4.65625 102.534 4.86198 102.133 5.27344C 101.737 5.67969 101.539 6.2474 101.539 6.97656L 100.094 6.97656C 100.094 5.92969 100.43 5.08333 101.102 4.4375C 101.779 3.79167 102.682 3.46875 103.812 3.46875C 104.87 3.46875 105.706 3.7474 106.32 4.30469C 106.935 4.85677 107.242 5.59375 107.242 6.51562C 107.242 7.63542 106.529 8.96875 105.102 10.5156L 102.055 13.8203L 107.766 13.8203L 107.766 15ZM 116.43 10.1484C 116.43 11.8411 116.141 13.099 115.562 13.9219C 114.984 14.7448 114.081 15.1562 112.852 15.1562C 111.638 15.1562 110.74 14.7552 110.156 13.9531C 109.573 13.1458 109.271 11.9427 109.25 10.3438L 109.25 8.41406C 109.25 6.74219 109.539 5.5 110.117 4.6875C 110.695 3.875 111.602 3.46875 112.836 3.46875C 114.06 3.46875 114.961 3.86198 115.539 4.64844C 116.117 5.42969 116.414 6.63802 116.43 8.27344L 116.43 10.1484ZM 114.984 8.17188C 114.984 6.94792 114.812 6.05729 114.469 5.5C 114.125 4.9375 113.581 4.65625 112.836 4.65625C 112.096 4.65625 111.557 4.9349 111.219 5.49219C 110.88 6.04948 110.706 6.90625 110.695 8.0625L 110.695 10.375C 110.695 11.6042 110.872 12.513 111.227 13.1016C 111.586 13.6849 112.128 13.9766 112.852 13.9766C 113.565 13.9766 114.094 13.7005 114.438 13.1484C 114.786 12.5964 114.969 11.7266 114.984 10.5391L 114.984 8.17188ZM 121.766 10.4609C 121.766 11.6224 121.612 12.737 121.305 13.8047C 121.003 14.8672 120.536 15.849 119.906 16.75C 119.281 17.651 118.625 18.2917 117.938 18.6719L 117.633 17.7891C 118.435 17.1745 119.078 16.2214 119.562 14.9297C 120.052 13.6328 120.302 12.1953 120.312 10.6172L 120.312 10.3672C 120.312 9.27344 120.198 8.25781 119.969 7.32031C 119.74 6.3776 119.419 5.53385 119.008 4.78906C 118.602 4.04427 118.143 3.46354 117.633 3.04688L 117.938 2.16406C 118.625 2.54427 119.279 3.17969 119.898 4.07031C 120.523 4.96094 120.99 5.94271 121.297 7.01562C 121.609 8.08854 121.766 9.23698 121.766 10.4609Z"/>
<path id="path5_fill" d="M 5.69531 15L 4.24219 15L 4.24219 5.36719L 1.32812 6.4375L 1.32812 5.125L 5.46875 3.57031L 5.69531 3.57031L 5.69531 15ZM 32.9297 10.7578L 29.1172 10.7578L 29.1172 9.57812L 32.9297 9.57812L 32.9297 10.7578ZM 38.9453 15L 37.4922 15L 37.4922 5.36719L 34.5781 6.4375L 34.5781 5.125L 38.7188 3.57031L 38.9453 3.57031L 38.9453 15ZM 43.6172 15.9766L 42.375 15.9766L 47.125 3.625L 48.3594 3.625L 43.6172 15.9766ZM 51.875 8.60938L 52.9609 8.60938C 53.6432 8.59896 54.1797 8.41927 54.5703 8.07031C 54.9609 7.72135 55.1562 7.25 55.1562 6.65625C 55.1562 5.32292 54.4922 4.65625 53.1641 4.65625C 52.5391 4.65625 52.0391 4.83594 51.6641 5.19531C 51.2943 5.54948 51.1094 6.02083 51.1094 6.60938L 49.6641 6.60938C 49.6641 5.70833 49.9922 4.96094 50.6484 4.36719C 51.3099 3.76823 52.1484 3.46875 53.1641 3.46875C 54.237 3.46875 55.0781 3.7526 55.6875 4.32031C 56.2969 4.88802 56.6016 5.67708 56.6016 6.6875C 56.6016 7.18229 56.4401 7.66146 56.1172 8.125C 55.7995 8.58854 55.3646 8.9349 54.8125 9.16406C 55.4375 9.36198 55.9193 9.6901 56.2578 10.1484C 56.6016 10.6068 56.7734 11.1667 56.7734 11.8281C 56.7734 12.849 56.4401 13.6589 55.7734 14.2578C 55.1068 14.8568 54.2396 15.1562 53.1719 15.1562C 52.1042 15.1562 51.2344 14.8672 50.5625 14.2891C 49.8958 13.7109 49.5625 12.9479 49.5625 12L 51.0156 12C 51.0156 12.599 51.2109 13.0781 51.6016 13.4375C 51.9922 13.7969 52.5156 13.9766 53.1719 13.9766C 53.8698 13.9766 54.4036 13.7943 54.7734 13.4297C 55.1432 13.0651 55.3281 12.5417 55.3281 11.8594C 55.3281 11.1979 55.125 10.6901 54.7188 10.3359C 54.3125 9.98177 53.7266 9.79948 52.9609 9.78906L 51.875 9.78906L 51.875 8.60938ZM 65.8906 10.1484C 65.8906 11.8411 65.6016 13.099 65.0234 13.9219C 64.4453 14.7448 63.5417 15.1562 62.3125 15.1562C 61.099 15.1562 60.2005 14.7552 59.6172 13.9531C 59.0339 13.1458 58.7318 11.9427 58.7109 10.3438L 58.7109 8.41406C 58.7109 6.74219 59 5.5 59.5781 4.6875C 60.1562 3.875 61.0625 3.46875 62.2969 3.46875C 63.5208 3.46875 64.4219 3.86198 65 4.64844C 65.5781 5.42969 65.875 6.63802 65.8906 8.27344L 65.8906 10.1484ZM 64.4453 8.17188C 64.4453 6.94792 64.2734 6.05729 63.9297 5.5C 63.5859 4.9375 63.0417 4.65625 62.2969 4.65625C 61.5573 4.65625 61.0182 4.9349 60.6797 5.49219C 60.3411 6.04948 60.1667 6.90625 60.1562 8.0625L 60.1562 10.375C 60.1562 11.6042 60.3333 12.513 60.6875 13.1016C 61.0469 13.6849 61.5885 13.9766 62.3125 13.9766C 63.026 13.9766 63.5547 13.7005 63.8984 13.1484C 64.2474 12.5964 64.4297 11.7266 64.4453 10.5391L 64.4453 8.17188ZM 94.7109 10.7578L 90.8984 10.7578L 90.8984 9.57812L 94.7109 9.57812L 94.7109 10.7578ZM 100.727 15L 99.2734 15L 99.2734 5.36719L 96.3594 6.4375L 96.3594 5.125L 100.5 3.57031L 100.727 3.57031L 100.727 15ZM 112.094 10.1484C 112.094 11.8411 111.805 13.099 111.227 13.9219C 110.648 14.7448 109.745 15.1562 108.516 15.1562C 107.302 15.1562 106.404 14.7552 105.82 13.9531C 105.237 13.1458 104.935 11.9427 104.914 10.3438L 104.914 8.41406C 104.914 6.74219 105.203 5.5 105.781 4.6875C 106.359 3.875 107.266 3.46875 108.5 3.46875C 109.724 3.46875 110.625 3.86198 111.203 4.64844C 111.781 5.42969 112.078 6.63802 112.094 8.27344L 112.094 10.1484ZM 110.648 8.17188C 110.648 6.94792 110.477 6.05729 110.133 5.5C 109.789 4.9375 109.245 4.65625 108.5 4.65625C 107.76 4.65625 107.221 4.9349 106.883 5.49219C 106.544 6.04948 106.37 6.90625 106.359 8.0625L 106.359 10.375C 106.359 11.6042 106.536 12.513 106.891 13.1016C 107.25 13.6849 107.792 13.9766 108.516 13.9766C 109.229 13.9766 109.758 13.7005 110.102 13.1484C 110.451 12.5964 110.633 11.7266 110.648 10.5391L 110.648 8.17188ZM 121.078 10.1484C 121.078 11.8411 120.789 13.099 120.211 13.9219C 119.633 14.7448 118.729 15.1562 117.5 15.1562C 116.286 15.1562 115.388 14.7552 114.805 13.9531C 114.221 13.1458 113.919 11.9427 113.898 10.3438L 113.898 8.41406C 113.898 6.74219 114.188 5.5 114.766 4.6875C 115.344 3.875 116.25 3.46875 117.484 3.46875C 118.708 3.46875 119.609 3.86198 120.188 4.64844C 120.766 5.42969 121.062 6.63802 121.078 8.27344L 121.078 10.1484ZM 119.633 8.17188C 119.633 6.94792 119.461 6.05729 119.117 5.5C 118.773 4.9375 118.229 4.65625 117.484 4.65625C 116.745 4.65625 116.206 4.9349 115.867 5.49219C 115.529 6.04948 115.354 6.90625 115.344 8.0625L 115.344 10.375C 115.344 11.6042 115.521 12.513 115.875 13.1016C 116.234 13.6849 116.776 13.9766 117.5 13.9766C 118.214 13.9766 118.742 13.7005 119.086 13.1484C 119.435 12.5964 119.617 11.7266 119.633 10.5391L 119.633 8.17188ZM 130.062 10.1484C 130.062 11.8411 129.773 13.099 129.195 13.9219C 128.617 14.7448 127.714 15.1562 126.484 15.1562C 125.271 15.1562 124.372 14.7552 123.789 13.9531C 123.206 13.1458 122.904 11.9427 122.883 10.3438L 122.883 8.41406C 122.883 6.74219 123.172 5.5 123.75 4.6875C 124.328 3.875 125.234 3.46875 126.469 3.46875C 127.693 3.46875 128.594 3.86198 129.172 4.64844C 129.75 5.42969 130.047 6.63802 130.062 8.27344L 130.062 10.1484ZM 128.617 8.17188C 128.617 6.94792 128.445 6.05729 128.102 5.5C 127.758 4.9375 127.214 4.65625 126.469 4.65625C 125.729 4.65625 125.19 4.9349 124.852 5.49219C 124.513 6.04948 124.339 6.90625 124.328 8.0625L 124.328 10.375C 124.328 11.6042 124.505 12.513 124.859 13.1016C 125.219 13.6849 125.76 13.9766 126.484 13.9766C 127.198 13.9766 127.727 13.7005 128.07 13.1484C 128.419 12.5964 128.602 11.7266 128.617 10.5391L 128.617 8.17188ZM 132.352 15.9766L 131.109 15.9766L 135.859 3.625L 137.094 3.625L 132.352 15.9766ZM 140.609 8.60938L 141.695 8.60938C 142.378 8.59896 142.914 8.41927 143.305 8.07031C 143.695 7.72135 143.891 7.25 143.891 6.65625C 143.891 5.32292 143.227 4.65625 141.898 4.65625C 141.273 4.65625 140.773 4.83594 140.398 5.19531C 140.029 5.54948 139.844 6.02083 139.844 6.60938L 138.398 6.60938C 138.398 5.70833 138.727 4.96094 139.383 4.36719C 140.044 3.76823 140.883 3.46875 141.898 3.46875C 142.971 3.46875 143.812 3.7526 144.422 4.32031C 145.031 4.88802 145.336 5.67708 145.336 6.6875C 145.336 7.18229 145.174 7.66146 144.852 8.125C 144.534 8.58854 144.099 8.9349 143.547 9.16406C 144.172 9.36198 144.654 9.6901 144.992 10.1484C 145.336 10.6068 145.508 11.1667 145.508 11.8281C 145.508 12.849 145.174 13.6589 144.508 14.2578C 143.841 14.8568 142.974 15.1562 141.906 15.1562C 140.839 15.1562 139.969 14.8672 139.297 14.2891C 138.63 13.7109 138.297 12.9479 138.297 12L 139.75 12C 139.75 12.599 139.945 13.0781 140.336 13.4375C 140.727 13.7969 141.25 13.9766 141.906 13.9766C 142.604 13.9766 143.138 13.7943 143.508 13.4297C 143.878 13.0651 144.062 12.5417 144.062 11.8594C 144.062 11.1979 143.859 10.6901 143.453 10.3359C 143.047 9.98177 142.461 9.79948 141.695 9.78906L 140.609 9.78906L 140.609 8.60938ZM 154.625 10.1484C 154.625 11.8411 154.336 13.099 153.758 13.9219C 153.18 14.7448 152.276 15.1562 151.047 15.1562C 149.833 15.1562 148.935 14.7552 148.352 13.9531C 147.768 13.1458 147.466 11.9427 147.445 10.3438L 147.445 8.41406C 147.445 6.74219 147.734 5.5 148.312 4.6875C 148.891 3.875 149.797 3.46875 151.031 3.46875C 152.255 3.46875 153.156 3.86198 153.734 4.64844C 154.312 5.42969 154.609 6.63802 154.625 8.27344L 154.625 10.1484ZM 153.18 8.17188C 153.18 6.94792 153.008 6.05729 152.664 5.5C 152.32 4.9375 151.776 4.65625 151.031 4.65625C 150.292 4.65625 149.753 4.9349 149.414 5.49219C 149.076 6.04948 148.901 6.90625 148.891 8.0625L 148.891 10.375C 148.891 11.6042 149.068 12.513 149.422 13.1016C 149.781 13.6849 150.323 13.9766 151.047 13.9766C 151.76 13.9766 152.289 13.7005 152.633 13.1484C 152.982 12.5964 153.164 11.7266 153.18 10.5391L 153.18 8.17188ZM 8.07812 29.1484C 8.07812 30.8411 7.78906 32.099 7.21094 32.9219C 6.63281 33.7448 5.72917 34.1562 4.5 34.1562C 3.28646 34.1562 2.38802 33.7552 1.80469 32.9531C 1.22135 32.1458 0.919271 30.9427 0.898438 29.3438L 0.898438 27.4141C 0.898438 25.7422 1.1875 24.5 1.76562 23.6875C 2.34375 22.875 3.25 22.4688 4.48438 22.4688C 5.70833 22.4688 6.60938 22.862 7.1875 23.6484C 7.76562 24.4297 8.0625 25.638 8.07812 27.2734L 8.07812 29.1484ZM 6.63281 27.1719C 6.63281 25.9479 6.46094 25.0573 6.11719 24.5C 5.77344 23.9375 5.22917 23.6562 4.48438 23.6562C 3.74479 23.6562 3.20573 23.9349 2.86719 24.4922C 2.52865 25.0495 2.35417 25.9062 2.34375 27.0625L 2.34375 29.375C 2.34375 30.6042 2.52083 31.513 2.875 32.1016C 3.23438 32.6849 3.77604 32.9766 4.5 32.9766C 5.21354 32.9766 5.74219 32.7005 6.08594 32.1484C 6.4349 31.5964 6.61719 30.7266 6.63281 29.5391L 6.63281 27.1719ZM 33.2578 34L 25.8047 34L 25.8047 32.9609L 29.7422 28.5859C 30.3255 27.9245 30.7266 27.388 30.9453 26.9766C 31.1693 26.5599 31.2812 26.1302 31.2812 25.6875C 31.2812 25.0938 31.1016 24.6068 30.7422 24.2266C 30.3828 23.8464 29.9036 23.6562 29.3047 23.6562C 28.5859 23.6562 28.026 23.862 27.625 24.2734C 27.2292 24.6797 27.0312 25.2474 27.0312 25.9766L 25.5859 25.9766C 25.5859 24.9297 25.9219 24.0833 26.5938 23.4375C 27.2708 22.7917 28.1745 22.4688 29.3047 22.4688C 30.362 22.4688 31.1979 22.7474 31.8125 23.3047C 32.4271 23.8568 32.7344 24.5938 32.7344 25.5156C 32.7344 26.6354 32.0208 27.9688 30.5938 29.5156L 27.5469 32.8203L 33.2578 32.8203L 33.2578 34ZM 41.9219 29.1484C 41.9219 30.8411 41.6328 32.099 41.0547 32.9219C 40.4766 33.7448 39.5729 34.1562 38.3438 34.1562C 37.1302 34.1562 36.2318 33.7552 35.6484 32.9531C 35.0651 32.1458 34.763 30.9427 34.7422 29.3438L 34.7422 27.4141C 34.7422 25.7422 35.0312 24.5 35.6094 23.6875C 36.1875 22.875 37.0938 22.4688 38.3281 22.4688C 39.5521 22.4688 40.4531 22.862 41.0312 23.6484C 41.6094 24.4297 41.9062 25.638 41.9219 27.2734L 41.9219 29.1484ZM 40.4766 27.1719C 40.4766 25.9479 40.3047 25.0573 39.9609 24.5C 39.6172 23.9375 39.0729 23.6562 38.3281 23.6562C 37.5885 23.6562 37.0495 23.9349 36.7109 24.4922C 36.3724 25.0495 36.1979 25.9062 36.1875 27.0625L 36.1875 29.375C 36.1875 30.6042 36.3646 31.513 36.7188 32.1016C 37.0781 32.6849 37.6198 32.9766 38.3438 32.9766C 39.0573 32.9766 39.5859 32.7005 39.9297 32.1484C 40.2786 31.5964 40.4609 30.7266 40.4766 29.5391L 40.4766 27.1719ZM 44.2109 34.9766L 42.9688 34.9766L 47.7188 22.625L 48.9531 22.625L 44.2109 34.9766ZM 52.4688 27.6094L 53.5547 27.6094C 54.237 27.599 54.7734 27.4193 55.1641 27.0703C 55.5547 26.7214 55.75 26.25 55.75 25.6562C 55.75 24.3229 55.0859 23.6562 53.7578 23.6562C 53.1328 23.6562 52.6328 23.8359 52.2578 24.1953C 51.888 24.5495 51.7031 25.0208 51.7031 25.6094L 50.2578 25.6094C 50.2578 24.7083 50.5859 23.9609 51.2422 23.3672C 51.9036 22.7682 52.7422 22.4688 53.7578 22.4688C 54.8307 22.4688 55.6719 22.7526 56.2812 23.3203C 56.8906 23.888 57.1953 24.6771 57.1953 25.6875C 57.1953 26.1823 57.0339 26.6615 56.7109 27.125C 56.3932 27.5885 55.9583 27.9349 55.4062 28.1641C 56.0312 28.362 56.513 28.6901 56.8516 29.1484C 57.1953 29.6068 57.3672 30.1667 57.3672 30.8281C 57.3672 31.849 57.0339 32.6589 56.3672 33.2578C 55.7005 33.8568 54.8333 34.1562 53.7656 34.1562C 52.6979 34.1562 51.8281 33.8672 51.1562 33.2891C 50.4896 32.7109 50.1562 31.9479 50.1562 31L 51.6094 31C 51.6094 31.599 51.8047 32.0781 52.1953 32.4375C 52.5859 32.7969 53.1094 32.9766 53.7656 32.9766C 54.4635 32.9766 54.9974 32.7943 55.3672 32.4297C 55.737 32.0651 55.9219 31.5417 55.9219 30.8594C 55.9219 30.1979 55.7188 29.6901 55.3125 29.3359C 54.9062 28.9818 54.3203 28.7995 53.5547 28.7891L 52.4688 28.7891L 52.4688 27.6094ZM 66.4844 29.1484C 66.4844 30.8411 66.1953 32.099 65.6172 32.9219C 65.0391 33.7448 64.1354 34.1562 62.9062 34.1562C 61.6927 34.1562 60.7943 33.7552 60.2109 32.9531C 59.6276 32.1458 59.3255 30.9427 59.3047 29.3438L 59.3047 27.4141C 59.3047 25.7422 59.5938 24.5 60.1719 23.6875C 60.75 22.875 61.6562 22.4688 62.8906 22.4688C 64.1146 22.4688 65.0156 22.862 65.5938 23.6484C 66.1719 24.4297 66.4688 25.638 66.4844 27.2734L 66.4844 29.1484ZM 65.0391 27.1719C 65.0391 25.9479 64.8672 25.0573 64.5234 24.5C 64.1797 23.9375 63.6354 23.6562 62.8906 23.6562C 62.151 23.6562 61.612 23.9349 61.2734 24.4922C 60.9349 25.0495 60.7604 25.9062 60.75 27.0625L 60.75 29.375C 60.75 30.6042 60.9271 31.513 61.2812 32.1016C 61.6406 32.6849 62.1823 32.9766 62.9062 32.9766C 63.6198 32.9766 64.1484 32.7005 64.4922 32.1484C 64.8411 31.5964 65.0234 30.7266 65.0391 29.5391L 65.0391 27.1719ZM 94.2812 30.1797L 95.8594 30.1797L 95.8594 31.3594L 94.2812 31.3594L 94.2812 34L 92.8281 34L 92.8281 31.3594L 87.6484 31.3594L 87.6484 30.5078L 92.7422 22.625L 94.2812 22.625L 94.2812 30.1797ZM 89.2891 30.1797L 92.8281 30.1797L 92.8281 24.6016L 92.6562 24.9141L 89.2891 30.1797ZM 104.508 23.4375L 99.7969 34L 98.2812 34L 102.977 23.8125L 96.8203 23.8125L 96.8203 22.625L 104.508 22.625L 104.508 23.4375ZM 113.281 29.1484C 113.281 30.8411 112.992 32.099 112.414 32.9219C 111.836 33.7448 110.932 34.1562 109.703 34.1562C 108.49 34.1562 107.591 33.7552 107.008 32.9531C 106.424 32.1458 106.122 30.9427 106.102 29.3438L 106.102 27.4141C 106.102 25.7422 106.391 24.5 106.969 23.6875C 107.547 22.875 108.453 22.4688 109.688 22.4688C 110.911 22.4688 111.812 22.862 112.391 23.6484C 112.969 24.4297 113.266 25.638 113.281 27.2734L 113.281 29.1484ZM 111.836 27.1719C 111.836 25.9479 111.664 25.0573 111.32 24.5C 110.977 23.9375 110.432 23.6562 109.688 23.6562C 108.948 23.6562 108.409 23.9349 108.07 24.4922C 107.732 25.0495 107.557 25.9062 107.547 27.0625L 107.547 29.375C 107.547 30.6042 107.724 31.513 108.078 32.1016C 108.438 32.6849 108.979 32.9766 109.703 32.9766C 110.417 32.9766 110.945 32.7005 111.289 32.1484C 111.638 31.5964 111.82 30.7266 111.836 29.5391L 111.836 27.1719ZM 122.266 29.1484C 122.266 30.8411 121.977 32.099 121.398 32.9219C 120.82 33.7448 119.917 34.1562 118.688 34.1562C 117.474 34.1562 116.576 33.7552 115.992 32.9531C 115.409 32.1458 115.107 30.9427 115.086 29.3438L 115.086 27.4141C 115.086 25.7422 115.375 24.5 115.953 23.6875C 116.531 22.875 117.438 22.4688 118.672 22.4688C 119.896 22.4688 120.797 22.862 121.375 23.6484C 121.953 24.4297 122.25 25.638 122.266 27.2734L 122.266 29.1484ZM 120.82 27.1719C 120.82 25.9479 120.648 25.0573 120.305 24.5C 119.961 23.9375 119.417 23.6562 118.672 23.6562C 117.932 23.6562 117.393 23.9349 117.055 24.4922C 116.716 25.0495 116.542 25.9062 116.531 27.0625L 116.531 29.375C 116.531 30.6042 116.708 31.513 117.062 32.1016C 117.422 32.6849 117.964 32.9766 118.688 32.9766C 119.401 32.9766 119.93 32.7005 120.273 32.1484C 120.622 31.5964 120.805 30.7266 120.82 29.5391L 120.82 27.1719ZM 131.25 29.1484C 131.25 30.8411 130.961 32.099 130.383 32.9219C 129.805 33.7448 128.901 34.1562 127.672 34.1562C 126.458 34.1562 125.56 33.7552 124.977 32.9531C 124.393 32.1458 124.091 30.9427 124.07 29.3438L 124.07 27.4141C 124.07 25.7422 124.359 24.5 124.938 23.6875C 125.516 22.875 126.422 22.4688 127.656 22.4688C 128.88 22.4688 129.781 22.862 130.359 23.6484C 130.938 24.4297 131.234 25.638 131.25 27.2734L 131.25 29.1484ZM 129.805 27.1719C 129.805 25.9479 129.633 25.0573 129.289 24.5C 128.945 23.9375 128.401 23.6562 127.656 23.6562C 126.917 23.6562 126.378 23.9349 126.039 24.4922C 125.701 25.0495 125.526 25.9062 125.516 27.0625L 125.516 29.375C 125.516 30.6042 125.693 31.513 126.047 32.1016C 126.406 32.6849 126.948 32.9766 127.672 32.9766C 128.385 32.9766 128.914 32.7005 129.258 32.1484C 129.607 31.5964 129.789 30.7266 129.805 29.5391L 129.805 27.1719ZM 133.539 34.9766L 132.297 34.9766L 137.047 22.625L 138.281 22.625L 133.539 34.9766ZM 141.797 27.6094L 142.883 27.6094C 143.565 27.599 144.102 27.4193 144.492 27.0703C 144.883 26.7214 145.078 26.25 145.078 25.6562C 145.078 24.3229 144.414 23.6562 143.086 23.6562C 142.461 23.6562 141.961 23.8359 141.586 24.1953C 141.216 24.5495 141.031 25.0208 141.031 25.6094L 139.586 25.6094C 139.586 24.7083 139.914 23.9609 140.57 23.3672C 141.232 22.7682 142.07 22.4688 143.086 22.4688C 144.159 22.4688 145 22.7526 145.609 23.3203C 146.219 23.888 146.523 24.6771 146.523 25.6875C 146.523 26.1823 146.362 26.6615 146.039 27.125C 145.721 27.5885 145.286 27.9349 144.734 28.1641C 145.359 28.362 145.841 28.6901 146.18 29.1484C 146.523 29.6068 146.695 30.1667 146.695 30.8281C 146.695 31.849 146.362 32.6589 145.695 33.2578C 145.029 33.8568 144.161 34.1562 143.094 34.1562C 142.026 34.1562 141.156 33.8672 140.484 33.2891C 139.818 32.7109 139.484 31.9479 139.484 31L 140.938 31C 140.938 31.599 141.133 32.0781 141.523 32.4375C 141.914 32.7969 142.438 32.9766 143.094 32.9766C 143.792 32.9766 144.326 32.7943 144.695 32.4297C 145.065 32.0651 145.25 31.5417 145.25 30.8594C 145.25 30.1979 145.047 29.6901 144.641 29.3359C 144.234 28.9818 143.648 28.7995 142.883 28.7891L 141.797 28.7891L 141.797 27.6094ZM 155.812 29.1484C 155.812 30.8411 155.523 32.099 154.945 32.9219C 154.367 33.7448 153.464 34.1562 152.234 34.1562C 151.021 34.1562 150.122 33.7552 149.539 32.9531C 148.956 32.1458 148.654 30.9427 148.633 29.3438L 148.633 27.4141C 148.633 25.7422 148.922 24.5 149.5 23.6875C 150.078 22.875 150.984 22.4688 152.219 22.4688C 153.443 22.4688 154.344 22.862 154.922 23.6484C 155.5 24.4297 155.797 25.638 155.812 27.2734L 155.812 29.1484ZM 154.367 27.1719C 154.367 25.9479 154.195 25.0573 153.852 24.5C 153.508 23.9375 152.964 23.6562 152.219 23.6562C 151.479 23.6562 150.94 23.9349 150.602 24.4922C 150.263 25.0495 150.089 25.9062 150.078 27.0625L 150.078 29.375C 150.078 30.6042 150.255 31.513 150.609 32.1016C 150.969 32.6849 151.51 32.9766 152.234 32.9766C 152.948 32.9766 153.477 32.7005 153.82 32.1484C 154.169 31.5964 154.352 30.7266 154.367 29.5391L 154.367 27.1719Z"/>
<path id="path6_fill" d="M 5.69531 15L 4.24219 15L 4.24219 5.36719L 1.32812 6.4375L 1.32812 5.125L 5.46875 3.57031L 5.69531 3.57031L 5.69531 15ZM 32.9297 10.7578L 29.1172 10.7578L 29.1172 9.57812L 32.9297 9.57812L 32.9297 10.7578ZM 38.9453 15L 37.4922 15L 37.4922 5.36719L 34.5781 6.4375L 34.5781 5.125L 38.7188 3.57031L 38.9453 3.57031L 38.9453 15ZM 43.6172 15.9766L 42.375 15.9766L 47.125 3.625L 48.3594 3.625L 43.6172 15.9766ZM 51.875 8.60938L 52.9609 8.60938C 53.6432 8.59896 54.1797 8.41927 54.5703 8.07031C 54.9609 7.72135 55.1562 7.25 55.1562 6.65625C 55.1562 5.32292 54.4922 4.65625 53.1641 4.65625C 52.5391 4.65625 52.0391 4.83594 51.6641 5.19531C 51.2943 5.54948 51.1094 6.02083 51.1094 6.60938L 49.6641 6.60938C 49.6641 5.70833 49.9922 4.96094 50.6484 4.36719C 51.3099 3.76823 52.1484 3.46875 53.1641 3.46875C 54.237 3.46875 55.0781 3.7526 55.6875 4.32031C 56.2969 4.88802 56.6016 5.67708 56.6016 6.6875C 56.6016 7.18229 56.4401 7.66146 56.1172 8.125C 55.7995 8.58854 55.3646 8.9349 54.8125 9.16406C 55.4375 9.36198 55.9193 9.6901 56.2578 10.1484C 56.6016 10.6068 56.7734 11.1667 56.7734 11.8281C 56.7734 12.849 56.4401 13.6589 55.7734 14.2578C 55.1068 14.8568 54.2396 15.1562 53.1719 15.1562C 52.1042 15.1562 51.2344 14.8672 50.5625 14.2891C 49.8958 13.7109 49.5625 12.9479 49.5625 12L 51.0156 12C 51.0156 12.599 51.2109 13.0781 51.6016 13.4375C 51.9922 13.7969 52.5156 13.9766 53.1719 13.9766C 53.8698 13.9766 54.4036 13.7943 54.7734 13.4297C 55.1432 13.0651 55.3281 12.5417 55.3281 11.8594C 55.3281 11.1979 55.125 10.6901 54.7188 10.3359C 54.3125 9.98177 53.7266 9.79948 52.9609 9.78906L 51.875 9.78906L 51.875 8.60938ZM 65.8906 10.1484C 65.8906 11.8411 65.6016 13.099 65.0234 13.9219C 64.4453 14.7448 63.5417 15.1562 62.3125 15.1562C 61.099 15.1562 60.2005 14.7552 59.6172 13.9531C 59.0339 13.1458 58.7318 11.9427 58.7109 10.3438L 58.7109 8.41406C 58.7109 6.74219 59 5.5 59.5781 4.6875C 60.1562 3.875 61.0625 3.46875 62.2969 3.46875C 63.5208 3.46875 64.4219 3.86198 65 4.64844C 65.5781 5.42969 65.875 6.63802 65.8906 8.27344L 65.8906 10.1484ZM 64.4453 8.17188C 64.4453 6.94792 64.2734 6.05729 63.9297 5.5C 63.5859 4.9375 63.0417 4.65625 62.2969 4.65625C 61.5573 4.65625 61.0182 4.9349 60.6797 5.49219C 60.3411 6.04948 60.1667 6.90625 60.1562 8.0625L 60.1562 10.375C 60.1562 11.6042 60.3333 12.513 60.6875 13.1016C 61.0469 13.6849 61.5885 13.9766 62.3125 13.9766C 63.026 13.9766 63.5547 13.7005 63.8984 13.1484C 64.2474 12.5964 64.4297 11.7266 64.4453 10.5391L 64.4453 8.17188ZM 90.7422 10.7578L 86.9297 10.7578L 86.9297 9.57812L 90.7422 9.57812L 90.7422 10.7578ZM 96.7578 15L 95.3047 15L 95.3047 5.36719L 92.3906 6.4375L 92.3906 5.125L 96.5312 3.57031L 96.7578 3.57031L 96.7578 15ZM 108.125 10.1484C 108.125 11.8411 107.836 13.099 107.258 13.9219C 106.68 14.7448 105.776 15.1562 104.547 15.1562C 103.333 15.1562 102.435 14.7552 101.852 13.9531C 101.268 13.1458 100.966 11.9427 100.945 10.3438L 100.945 8.41406C 100.945 6.74219 101.234 5.5 101.812 4.6875C 102.391 3.875 103.297 3.46875 104.531 3.46875C 105.755 3.46875 106.656 3.86198 107.234 4.64844C 107.812 5.42969 108.109 6.63802 108.125 8.27344L 108.125 10.1484ZM 106.68 8.17188C 106.68 6.94792 106.508 6.05729 106.164 5.5C 105.82 4.9375 105.276 4.65625 104.531 4.65625C 103.792 4.65625 103.253 4.9349 102.914 5.49219C 102.576 6.04948 102.401 6.90625 102.391 8.0625L 102.391 10.375C 102.391 11.6042 102.568 12.513 102.922 13.1016C 103.281 13.6849 103.823 13.9766 104.547 13.9766C 105.26 13.9766 105.789 13.7005 106.133 13.1484C 106.482 12.5964 106.664 11.7266 106.68 10.5391L 106.68 8.17188ZM 117.109 10.1484C 117.109 11.8411 116.82 13.099 116.242 13.9219C 115.664 14.7448 114.76 15.1562 113.531 15.1562C 112.318 15.1562 111.419 14.7552 110.836 13.9531C 110.253 13.1458 109.951 11.9427 109.93 10.3438L 109.93 8.41406C 109.93 6.74219 110.219 5.5 110.797 4.6875C 111.375 3.875 112.281 3.46875 113.516 3.46875C 114.74 3.46875 115.641 3.86198 116.219 4.64844C 116.797 5.42969 117.094 6.63802 117.109 8.27344L 117.109 10.1484ZM 115.664 8.17188C 115.664 6.94792 115.492 6.05729 115.148 5.5C 114.805 4.9375 114.26 4.65625 113.516 4.65625C 112.776 4.65625 112.237 4.9349 111.898 5.49219C 111.56 6.04948 111.385 6.90625 111.375 8.0625L 111.375 10.375C 111.375 11.6042 111.552 12.513 111.906 13.1016C 112.266 13.6849 112.807 13.9766 113.531 13.9766C 114.245 13.9766 114.773 13.7005 115.117 13.1484C 115.466 12.5964 115.648 11.7266 115.664 10.5391L 115.664 8.17188ZM 126.094 10.1484C 126.094 11.8411 125.805 13.099 125.227 13.9219C 124.648 14.7448 123.745 15.1562 122.516 15.1562C 121.302 15.1562 120.404 14.7552 119.82 13.9531C 119.237 13.1458 118.935 11.9427 118.914 10.3438L 118.914 8.41406C 118.914 6.74219 119.203 5.5 119.781 4.6875C 120.359 3.875 121.266 3.46875 122.5 3.46875C 123.724 3.46875 124.625 3.86198 125.203 4.64844C 125.781 5.42969 126.078 6.63802 126.094 8.27344L 126.094 10.1484ZM 124.648 8.17188C 124.648 6.94792 124.477 6.05729 124.133 5.5C 123.789 4.9375 123.245 4.65625 122.5 4.65625C 121.76 4.65625 121.221 4.9349 120.883 5.49219C 120.544 6.04948 120.37 6.90625 120.359 8.0625L 120.359 10.375C 120.359 11.6042 120.536 12.513 120.891 13.1016C 121.25 13.6849 121.792 13.9766 122.516 13.9766C 123.229 13.9766 123.758 13.7005 124.102 13.1484C 124.451 12.5964 124.633 11.7266 124.648 10.5391L 124.648 8.17188ZM 128.383 15.9766L 127.141 15.9766L 131.891 3.625L 133.125 3.625L 128.383 15.9766ZM 136.641 8.60938L 137.727 8.60938C 138.409 8.59896 138.945 8.41927 139.336 8.07031C 139.727 7.72135 139.922 7.25 139.922 6.65625C 139.922 5.32292 139.258 4.65625 137.93 4.65625C 137.305 4.65625 136.805 4.83594 136.43 5.19531C 136.06 5.54948 135.875 6.02083 135.875 6.60938L 134.43 6.60938C 134.43 5.70833 134.758 4.96094 135.414 4.36719C 136.076 3.76823 136.914 3.46875 137.93 3.46875C 139.003 3.46875 139.844 3.7526 140.453 4.32031C 141.062 4.88802 141.367 5.67708 141.367 6.6875C 141.367 7.18229 141.206 7.66146 140.883 8.125C 140.565 8.58854 140.13 8.9349 139.578 9.16406C 140.203 9.36198 140.685 9.6901 141.023 10.1484C 141.367 10.6068 141.539 11.1667 141.539 11.8281C 141.539 12.849 141.206 13.6589 140.539 14.2578C 139.872 14.8568 139.005 15.1562 137.938 15.1562C 136.87 15.1562 136 14.8672 135.328 14.2891C 134.661 13.7109 134.328 12.9479 134.328 12L 135.781 12C 135.781 12.599 135.977 13.0781 136.367 13.4375C 136.758 13.7969 137.281 13.9766 137.938 13.9766C 138.635 13.9766 139.169 13.7943 139.539 13.4297C 139.909 13.0651 140.094 12.5417 140.094 11.8594C 140.094 11.1979 139.891 10.6901 139.484 10.3359C 139.078 9.98177 138.492 9.79948 137.727 9.78906L 136.641 9.78906L 136.641 8.60938ZM 150.656 10.1484C 150.656 11.8411 150.367 13.099 149.789 13.9219C 149.211 14.7448 148.307 15.1562 147.078 15.1562C 145.865 15.1562 144.966 14.7552 144.383 13.9531C 143.799 13.1458 143.497 11.9427 143.477 10.3438L 143.477 8.41406C 143.477 6.74219 143.766 5.5 144.344 4.6875C 144.922 3.875 145.828 3.46875 147.062 3.46875C 148.286 3.46875 149.188 3.86198 149.766 4.64844C 150.344 5.42969 150.641 6.63802 150.656 8.27344L 150.656 10.1484ZM 149.211 8.17188C 149.211 6.94792 149.039 6.05729 148.695 5.5C 148.352 4.9375 147.807 4.65625 147.062 4.65625C 146.323 4.65625 145.784 4.9349 145.445 5.49219C 145.107 6.04948 144.932 6.90625 144.922 8.0625L 144.922 10.375C 144.922 11.6042 145.099 12.513 145.453 13.1016C 145.812 13.6849 146.354 13.9766 147.078 13.9766C 147.792 13.9766 148.32 13.7005 148.664 13.1484C 149.013 12.5964 149.195 11.7266 149.211 10.5391L 149.211 8.17188ZM 8.07812 29.1484C 8.07812 30.8411 7.78906 32.099 7.21094 32.9219C 6.63281 33.7448 5.72917 34.1562 4.5 34.1562C 3.28646 34.1562 2.38802 33.7552 1.80469 32.9531C 1.22135 32.1458 0.919271 30.9427 0.898438 29.3438L 0.898438 27.4141C 0.898438 25.7422 1.1875 24.5 1.76562 23.6875C 2.34375 22.875 3.25 22.4688 4.48438 22.4688C 5.70833 22.4688 6.60938 22.862 7.1875 23.6484C 7.76562 24.4297 8.0625 25.638 8.07812 27.2734L 8.07812 29.1484ZM 6.63281 27.1719C 6.63281 25.9479 6.46094 25.0573 6.11719 24.5C 5.77344 23.9375 5.22917 23.6562 4.48438 23.6562C 3.74479 23.6562 3.20573 23.9349 2.86719 24.4922C 2.52865 25.0495 2.35417 25.9062 2.34375 27.0625L 2.34375 29.375C 2.34375 30.6042 2.52083 31.513 2.875 32.1016C 3.23438 32.6849 3.77604 32.9766 4.5 32.9766C 5.21354 32.9766 5.74219 32.7005 6.08594 32.1484C 6.4349 31.5964 6.61719 30.7266 6.63281 29.5391L 6.63281 27.1719ZM 38.4922 34L 37.0391 34L 37.0391 24.3672L 34.125 25.4375L 34.125 24.125L 38.2656 22.5703L 38.4922 22.5703L 38.4922 34ZM 97.8047 34L 90.3516 34L 90.3516 32.9609L 94.2891 28.5859C 94.8724 27.9245 95.2734 27.388 95.4922 26.9766C 95.7161 26.5599 95.8281 26.1302 95.8281 25.6875C 95.8281 25.0938 95.6484 24.6068 95.2891 24.2266C 94.9297 23.8464 94.4505 23.6562 93.8516 23.6562C 93.1328 23.6562 92.5729 23.862 92.1719 24.2734C 91.776 24.6797 91.5781 25.2474 91.5781 25.9766L 90.1328 25.9766C 90.1328 24.9297 90.4688 24.0833 91.1406 23.4375C 91.8177 22.7917 92.7214 22.4688 93.8516 22.4688C 94.9089 22.4688 95.7448 22.7474 96.3594 23.3047C 96.974 23.8568 97.2812 24.5938 97.2812 25.5156C 97.2812 26.6354 96.5677 27.9688 95.1406 29.5156L 92.0938 32.8203L 97.8047 32.8203L 97.8047 34ZM 101.438 27.6094L 102.523 27.6094C 103.206 27.599 103.742 27.4193 104.133 27.0703C 104.523 26.7214 104.719 26.25 104.719 25.6562C 104.719 24.3229 104.055 23.6562 102.727 23.6562C 102.102 23.6562 101.602 23.8359 101.227 24.1953C 100.857 24.5495 100.672 25.0208 100.672 25.6094L 99.2266 25.6094C 99.2266 24.7083 99.5547 23.9609 100.211 23.3672C 100.872 22.7682 101.711 22.4688 102.727 22.4688C 103.799 22.4688 104.641 22.7526 105.25 23.3203C 105.859 23.888 106.164 24.6771 106.164 25.6875C 106.164 26.1823 106.003 26.6615 105.68 27.125C 105.362 27.5885 104.927 27.9349 104.375 28.1641C 105 28.362 105.482 28.6901 105.82 29.1484C 106.164 29.6068 106.336 30.1667 106.336 30.8281C 106.336 31.849 106.003 32.6589 105.336 33.2578C 104.669 33.8568 103.802 34.1562 102.734 34.1562C 101.667 34.1562 100.797 33.8672 100.125 33.2891C 99.4583 32.7109 99.125 31.9479 99.125 31L 100.578 31C 100.578 31.599 100.773 32.0781 101.164 32.4375C 101.555 32.7969 102.078 32.9766 102.734 32.9766C 103.432 32.9766 103.966 32.7943 104.336 32.4297C 104.706 32.0651 104.891 31.5417 104.891 30.8594C 104.891 30.1979 104.688 29.6901 104.281 29.3359C 103.875 28.9818 103.289 28.7995 102.523 28.7891L 101.438 28.7891L 101.438 27.6094ZM 108.984 28.2969L 109.562 22.625L 115.391 22.625L 115.391 23.9609L 110.789 23.9609L 110.445 27.0625C 111.003 26.7344 111.635 26.5703 112.344 26.5703C 113.38 26.5703 114.203 26.9141 114.812 27.6016C 115.422 28.2839 115.727 29.2083 115.727 30.375C 115.727 31.5469 115.409 32.4714 114.773 33.1484C 114.143 33.8203 113.26 34.1562 112.125 34.1562C 111.12 34.1562 110.299 33.8776 109.664 33.3203C 109.029 32.763 108.667 31.9922 108.578 31.0078L 109.945 31.0078C 110.034 31.6589 110.266 32.151 110.641 32.4844C 111.016 32.8125 111.51 32.9766 112.125 32.9766C 112.797 32.9766 113.323 32.7474 113.703 32.2891C 114.089 31.8307 114.281 31.1979 114.281 30.3906C 114.281 29.6302 114.073 29.0208 113.656 28.5625C 113.245 28.099 112.695 27.8672 112.008 27.8672C 111.378 27.8672 110.883 28.0052 110.523 28.2812L 110.141 28.5938L 108.984 28.2969ZM 124.438 29.1484C 124.438 30.8411 124.148 32.099 123.57 32.9219C 122.992 33.7448 122.089 34.1562 120.859 34.1562C 119.646 34.1562 118.747 33.7552 118.164 32.9531C 117.581 32.1458 117.279 30.9427 117.258 29.3438L 117.258 27.4141C 117.258 25.7422 117.547 24.5 118.125 23.6875C 118.703 22.875 119.609 22.4688 120.844 22.4688C 122.068 22.4688 122.969 22.862 123.547 23.6484C 124.125 24.4297 124.422 25.638 124.438 27.2734L 124.438 29.1484ZM 122.992 27.1719C 122.992 25.9479 122.82 25.0573 122.477 24.5C 122.133 23.9375 121.589 23.6562 120.844 23.6562C 120.104 23.6562 119.565 23.9349 119.227 24.4922C 118.888 25.0495 118.714 25.9062 118.703 27.0625L 118.703 29.375C 118.703 30.6042 118.88 31.513 119.234 32.1016C 119.594 32.6849 120.135 32.9766 120.859 32.9766C 121.573 32.9766 122.102 32.7005 122.445 32.1484C 122.794 31.5964 122.977 30.7266 122.992 29.5391L 122.992 27.1719Z"/>
</defs>
</svg>

